<?xml version="1.0" encoding="iso-8859-1"?>
<!-- Generator: Adobe Illustrator 19.0.0, SVG Export Plug-In . SVG Version: 6.00 Build 0)  -->
<svg version="1.1" id="Layer_1" xmlns="http://www.w3.org/2000/svg" xmlns:xlink="http://www.w3.org/1999/xlink" x="0px" y="0px"
	 viewBox="0 0 512 512" style="enable-background:new 0 0 512 512;" xml:space="preserve">
<polygon style="fill:#686152;" points="259.595,454.383 247.304,476.514 259.595,494.94 210.552,494.94 210.552,454.383 
	226.411,454.383 "/>
<path style="fill:#509364;" d="M174.732,200.383c0,64.528-93.031,107.459-74.594,148.006c6.521,14.348,17.2,23.403,28.277,29.072
	l0.011,0.011c-15.859,13.337-26.05,27.742-32.445,41.739c0,0-63.131-31.184-44.703-93.872
	c18.439-62.665,115.219-113.356,71.901-156.685c-17.791-17.791-35.9-2.227-51.054,0.579c-27.072,4.999-40.001-32.468-15.053-44.124
	c0.512-0.239,1.045-0.466,1.579-0.693C134.243,93.071,174.732,135.879,174.732,200.383z"/>
<path style="fill:#B7A57D;" d="M322.224,494.942h-62.626l-12.296-18.428l12.296-22.126h-49.042v40.554h-80.268
	c-26.927,0-47.297-24.494-42.213-50.941c1.506-7.888,4.004-16.267,7.91-24.789c6.394-13.998,16.584-28.4,32.437-41.743
	c2.422-2.04,4.964-4.048,7.659-6.044c11.969-8.816,22.748-19.137,32.404-30.178c0.098-0.12,0.142-0.175,0.142-0.175
	c7.31-8.379,13.976-17.184,20.01-26.065h0.011l-1.058,45.027l38.634-14.38l-9.088,34.073h46.195l-13.627,43.925l40.892,1.517
	l-9.841,39.376l31.662,8.041c-1.702,2.128-2.717,4.833-2.717,7.779v2.04C309.698,489.334,315.306,494.942,322.224,494.942z"/>
<g>
	<path style="fill:#F9D780;" d="M429.618,480.365v2.045c0,6.93-5.612,12.531-12.531,12.531h-47.431v-27.106h45.977h1.454
		C424.006,467.834,429.618,473.447,429.618,480.365z"/>
	<path style="fill:#F9D780;" d="M323.669,467.834h45.988v27.106H323.26h-1.034c-6.918,0-12.531-5.6-12.531-12.531v-2.045
		c0-2.943,1.022-5.646,2.716-7.782c2.294-2.897,5.839-4.748,9.815-4.748L323.669,467.834L323.669,467.834z"/>
</g>
<g>
	<path style="fill:#E8BB54;" d="M323.669,375.223v92.611h-1.442c-3.976,0-7.521,1.852-9.815,4.748l-31.662-8.032l9.85-39.376
		l-40.898-1.522l13.633-43.92h-46.204l9.088-34.082l-38.626,14.382l1.056-45.022h-0.011c32.525-47.839,46.851-98.007,46.851-98.007
		c0,90.771,49.339,136.384,88.18,158.207L323.669,375.223L323.669,375.223z"/>
	<path style="fill:#E8BB54;" d="M415.633,370.77v97.065h-45.977v-74.275v-0.011C370.054,393.422,390.674,386.788,415.633,370.77z"/>
	<path style="fill:#E8BB54;" d="M369.657,393.558v74.275h-45.988v-92.611c25.198,14.166,45.977,18.336,45.977,18.336
		S369.646,393.558,369.657,393.558z"/>
	<path style="fill:#E8BB54;" d="M285.27,79.336c12.088,0,22.721,6.112,29.015,15.416c-21.608,9.804-40.171,25.175-53.827,44.283
		c-6.305-6.328-10.201-15.064-10.201-24.698C250.257,95.003,265.924,79.336,285.27,79.336z"/>
	<path style="fill:#E8BB54;" d="M489.045,114.338c0,9.634-3.897,18.37-10.201,24.698c-13.666-19.109-32.219-34.479-53.838-44.283
		c6.294-9.304,16.951-15.416,29.038-15.416C473.367,79.336,489.045,95.003,489.045,114.338z"/>
	<path style="fill:#E8BB54;" d="M465.511,215.362c0,53.712-44.176,97.092-98.172,95.816c-18.537-0.426-35.83-6.219-50.374-15.864
		c-25.443-16.868-42.496-45.518-43.151-77.955c-0.48-23.392,7.43-44.929,20.926-61.819c9.23-11.543,24.996-15.853,38.688-10.267
		c4.299,1.757,8.75,3.219,13.333,4.331c7.332,1.8,14.991,2.76,22.879,2.76c12.831,0,25.061-2.52,36.245-7.092
		c13.485-5.51,29.153-1.495,38.318,9.83C457.535,171.557,465.511,192.527,465.511,215.362z"/>
</g>
<path style="fill:#CEA146;" d="M316.965,295.314c-25.443-16.868-42.496-45.518-43.151-77.955
	c-0.48-23.392,7.43-44.929,20.926-61.819c9.23-11.543,24.996-15.853,38.688-10.267c4.299,1.757,8.75,3.219,13.333,4.331
	C328.628,172.222,302.868,219.465,316.965,295.314z"/>
<path style="fill:#F9D780;" d="M478.843,139.033c-13.671-19.104-32.219-34.477-53.832-44.275
	c-14.38-6.524-30.113-10.583-46.675-11.652c-2.869-0.175-5.772-0.273-8.696-0.273c-19.737,0-38.47,4.266-55.36,11.925
	c-21.603,9.798-40.161,25.17-53.821,44.275c-15.722,21.985-24.974,48.901-24.974,77.966c0,90.775,49.337,136.392,88.178,158.212
	v0.011c25.203,14.173,45.977,18.34,45.977,18.34s0,0,0.011,0v-0.011c0.065-0.022,0.644-0.207,1.68-0.567
	c5.433-1.931,23.337-8.761,44.296-22.214c38.83-24.93,88.189-72.576,88.189-153.772
	C503.817,187.933,494.565,161.017,478.843,139.033z M367.338,311.178c-36.605-0.851-68.343-22.585-83.694-53.647
	c-6.033-12.187-9.536-25.814-9.83-40.172c-0.48-23.392,7.43-44.929,20.926-61.819c2.629-3.295,5.793-5.99,9.285-8.052
	c8.761-5.15,19.617-6.208,29.404-2.215c11.183,4.571,23.403,7.092,36.212,7.092c12.831,0,25.061-2.52,36.245-7.092
	c13.485-5.51,29.153-1.495,38.318,9.83c13.333,16.453,21.308,37.423,21.308,60.258C465.511,269.074,421.334,312.454,367.338,311.178
	z"/>
<path style="fill:#E5C06E;" d="M371.332,392.984c-1.036,0.36-1.615,0.546-1.68,0.567v0.011c-0.011,0-0.011,0-0.011,0
	s-20.773-4.168-45.977-18.34v-0.011c-38.841-21.821-88.178-67.437-88.178-158.212c0-29.065,9.252-55.982,24.974-77.966
	c13.66-19.104,32.219-34.477,53.821-44.275c16.889-7.659,35.623-11.925,55.36-11.925c2.924,0,5.826,0.098,8.696,0.273l0.011,0.022
	c0,0-45.846,17.14-74.322,64.361c-3.491,2.062-6.655,4.757-9.285,8.052c-13.496,16.889-21.406,38.427-20.926,61.819
	c0.295,14.358,3.797,27.985,9.83,40.172c1.549,12.22,4.201,25.214,8.128,39.016C304.636,341.749,334.64,372.353,371.332,392.984z"/>
<path style="fill:#A3906C;" d="M161.993,494.942h-31.706c-26.927,0-47.297-24.494-42.213-50.941
	c1.506-7.888,4.004-16.267,7.91-24.789c6.394-13.998,16.584-28.4,32.437-41.743c2.422-2.04,4.964-4.048,7.659-6.044
	c11.969-8.816,22.748-19.137,32.404-30.178C164.677,346.059,83.699,450.122,161.993,494.942z"/>
<g>
	<path style="fill:#B7A57D;" d="M324.825,101.025c-0.68-26.917-9.538-75.213-63.396-82.239c0,0,87.634-20.573,94.494,80.784
		c0.54,7.974-5.108,15.049-12.993,16.357l0,0C333.625,117.47,325.064,110.455,324.825,101.025z"/>
	<path style="fill:#B7A57D;" d="M414.483,101.025c0.68-26.917,9.538-75.213,63.395-82.239c0,0-87.634-20.573-94.494,80.784
		c-0.54,7.974,5.108,15.049,12.993,16.357l0,0C405.684,117.47,414.246,110.455,414.483,101.025z"/>
</g>
<path d="M508.301,184.638c-1.023-4.401-5.425-7.139-9.824-6.116c-4.401,1.023-7.14,5.423-6.115,9.824
	c2.171,9.336,3.272,18.98,3.272,28.663c0,52.755-21.414,97.095-63.647,131.789c-27.37,22.483-55.162,33.493-62.782,36.257
	c-7.625-1.915-35.136-9.866-62.208-30.556c-42.015-32.109-63.318-78.369-63.318-137.49c0-49.253,28.944-93.892,73.048-114.346
	c0.543,6.303,3.591,12.149,8.507,16.21c4.293,3.547,9.654,5.448,15.142,5.448c1.295,0,2.598-0.106,3.894-0.321
	c12.125-2.011,20.646-12.751,19.818-24.982c-0.181-2.671-0.436-5.265-0.728-7.824c4.191-0.204,8.399-0.204,12.588,0
	c-0.291,2.558-0.547,5.153-0.728,7.824c-0.829,12.231,7.692,22.971,19.818,24.982c1.297,0.215,2.599,0.321,3.894,0.321
	c5.487,0,10.848-1.901,15.143-5.449c4.916-4.063,7.964-9.91,8.505-16.215c28.488,13.213,51.286,36.774,63.441,65.994
	c1.308,3.145,4.352,5.042,7.559,5.042c1.047,0,2.113-0.203,3.14-0.63c4.172-1.736,6.148-6.526,4.412-10.699
	c-3.33-8.003-7.368-15.63-12.03-22.807c5.272-7.299,8.125-16.039,8.125-25.219c0-23.812-19.373-43.186-43.185-43.186
	c-11.128,0-21.656,4.282-29.586,11.742c1.532-8.691,4.249-18.007,8.943-26.487c9.331-16.856,24.652-26.784,45.538-29.508
	c3.921-0.512,6.915-3.752,7.115-7.702c0.2-3.948-2.453-7.475-6.302-8.379c-1.613-0.379-39.847-9.015-70.176,13.391
	c-15.358,11.347-25.698,28.36-30.889,50.741c-6.003-0.372-12.054-0.372-18.061,0c-5.19-22.382-15.531-39.395-30.889-50.742
	c-30.329-22.401-68.563-13.765-70.176-13.387c-3.849,0.904-6.502,4.431-6.302,8.379c0.2,3.95,3.193,7.19,7.115,7.702
	c20.887,2.724,36.208,12.653,45.538,29.508c4.695,8.482,7.41,17.796,8.942,26.488c-7.93-7.461-18.454-11.744-29.576-11.744
	c-23.819,0-43.198,19.373-43.198,43.186c0,9.211,2.872,17.98,8.178,25.295c-14.404,22.228-22.664,48.491-22.917,76.075
	c-3.145,10.311-32.671,102.399-96.109,149.143c-1.231,0.907-2.432,1.827-3.621,2.755c-9.031-5.642-15.758-13.222-20.023-22.602
	c-6.454-14.195,6.402-30.389,28.344-55.373c6.496-7.397,13.214-15.048,19.523-23.16c2.773-3.568,2.131-8.709-1.437-11.483
	c-3.566-2.773-8.708-2.131-11.482,1.437c-6.008,7.727-12.562,15.19-18.9,22.408c-21.723,24.736-42.241,48.1-30.943,72.945
	c4.962,10.916,12.395,19.945,22.151,26.966c-9.055,8.867-16.477,18.523-22.241,28.926c-5.41-3.607-13.108-9.504-20.016-17.616
	c-15.685-18.417-20.209-39.411-13.448-62.398c6.85-23.285,25.682-45.245,43.895-66.482c14.291-16.662,27.788-32.402,34.652-48.002
	c8.432-19.162,5.5-36.085-8.714-50.299c-16.942-16.942-34.574-10.17-47.448-5.226c-3.955,1.519-7.691,2.953-10.877,3.543
	c-10.098,1.862-15.96-4.634-17.923-10.763c-1.918-5.992-0.872-13.841,7.872-17.924c0.219-0.105,0.447-0.201,0.673-0.298
	c0.022,0.067,0.031,0.135,0.053,0.202c1.135,3.215,4.293,5.43,7.702,5.43c3.788,0,7.143-2.715,7.976-6.395
	c0.363-1.608,0.205-3.271-0.38-4.766c24.6-7.326,45.483-5.828,60.988,4.527c18.669,12.47,28.951,37.041,28.951,69.189
	c0,12.051-3.708,24.322-11.339,37.51c-2.263,3.911-0.926,8.917,2.985,11.181c3.911,2.264,8.919,0.926,11.181-2.986
	c9.11-15.748,13.538-30.699,13.538-45.705c0-37.789-12.866-67.194-36.226-82.798c-16.243-10.847-45.243-19.783-91.171-0.739
	c-0.035,0.015-0.07,0.029-0.105,0.045l-0.269,0.116c-0.543,0.232-1.074,0.463-1.539,0.685c-14.623,6.829-21.4,22.338-16.478,37.715
	c0.217,0.68,0.466,1.357,0.732,2.032c-3.618,3.351-8.194,8.51-11.921,15.647c-16.06-0.523-23.22,7.466-24.063,8.484
	c-2.884,3.479-2.399,8.638,1.08,11.521c1.527,1.266,3.378,1.882,5.216,1.882c2.352,0,4.687-1.009,6.305-2.962
	c0.021-0.025,1.758-1.536,5.74-2.237c-0.687,3.717-1.084,7.73-1.084,12.059c0,4.519,3.663,8.183,8.183,8.183
	s8.183-3.664,8.183-8.183c0-15.842,6.978-25.847,12.007-31c6.455,5.371,15.34,8.427,26.103,6.44c4.67-0.864,9.297-2.639,13.77-4.358
	c13.145-5.048,21.022-7.469,30.009,1.52c19.74,19.739,3.542,40.71-26.788,76.074c-18.435,21.497-39.332,45.862-47.172,72.517
	c-8.361,28.426-2.452,55.431,17.089,78.093c8.935,10.364,18.766,17.519,25.11,21.542c-2.417,6.36-4.286,12.958-5.596,19.789
	c-2.874,14.969,1.056,30.304,10.781,42.074c9.764,11.817,24.154,18.594,39.479,18.594l287.286,0.003
	c11.148,0,20.218-9.07,20.218-20.219v-3.044c0-8.972-5.877-16.587-13.981-19.223v-19.956c0-4.519-3.663-8.183-8.183-8.183
	s-8.183,3.664-8.183,8.183v18.96h-29.612v-60.341c6.183-2.374,16.856-6.898,29.612-14.064v32.533c0,4.519,3.663,8.183,8.183,8.183
	s8.183-3.664,8.183-8.183v-42.583c5.9-3.946,11.988-8.385,18.092-13.372C487.763,324.36,512,274.283,512,217.007
	C512,206.08,510.755,195.189,508.301,184.638z M480.863,114.339c0,3.846-0.811,7.565-2.338,10.973
	c-11.177-13.256-24.717-24.43-39.955-32.879c4.467-3.153,9.849-4.913,15.474-4.913C468.831,87.519,480.863,99.551,480.863,114.339z
	 M391.549,100.123c1.993-29.443,11.294-50.528,27.643-62.669c4.615-3.428,9.534-5.94,14.469-7.758
	c-5.685,5.245-10.553,11.512-14.58,18.787c-9.921,17.923-12.425,38.352-12.778,52.335l0,0c-0.053,2.137-0.995,4.069-2.652,5.438
	c-1.678,1.387-3.785,1.954-5.933,1.597C393.946,107.229,391.293,103.906,391.549,100.123z M305.605,29.656
	c4.902,1.813,9.794,4.312,14.405,7.719c16.416,12.129,25.753,33.24,27.75,62.748c0.255,3.783-2.395,7.107-6.168,7.732
	c-2.145,0.357-4.253-0.211-5.933-1.597c-1.657-1.369-2.6-3.3-2.653-5.439c-0.353-13.983-2.856-34.413-12.777-52.335
	C316.191,41.19,311.308,34.909,305.605,29.656z M258.443,114.339c0-14.788,12.036-26.82,26.832-26.82
	c5.622,0,11.002,1.761,15.467,4.915c-15.372,8.528-28.847,19.764-39.926,32.955C259.266,121.961,258.443,118.213,258.443,114.339z
	 M321.704,486.765c-2.11-0.017-3.821-1.736-3.821-3.85v-3.044c0-2.124,1.728-3.854,3.852-3.854h39.741v10.751L321.704,486.765z
	 M331.852,459.652v-70.956c12.568,5.984,23.19,9.448,29.624,11.252v59.704H331.852z M297.63,367.937
	c6.019,4.564,12.026,8.536,17.856,12.008v80.707c-2.022,0.659-3.897,1.635-5.584,2.86l-19.234-4.878l7.869-31.472
	c0.598-2.393,0.085-4.928-1.397-6.9c-1.482-1.972-3.774-3.171-6.24-3.261l-30.218-1.119l10.465-33.72
	c0.77-2.483,0.315-5.186-1.227-7.278c-1.542-2.094-3.988-3.33-6.588-3.33h-35.549l6.344-23.79c0.789-2.958-0.14-6.108-2.405-8.165
	c-2.266-2.058-5.491-2.677-8.358-1.611l-27.306,10.173l0.712-30.407c14.978-22.34,26.035-44.951,33.607-62.881
	C240.045,312.529,270.957,347.714,297.63,367.937z M103.434,474.112c-6.605-7.994-9.275-18.405-7.325-28.565
	c5.116-26.656,20.2-49.373,44.83-67.521c14.705-10.836,27.643-23.752,38.928-37.47l-0.452,19.295
	c-0.064,2.713,1.223,5.282,3.434,6.857c2.212,1.574,5.058,1.951,7.603,1.003l23.78-8.86l-5.007,18.775
	c-0.655,2.456-0.131,5.078,1.418,7.094s3.946,3.198,6.488,3.198h35.092l-10.341,33.319c-0.754,2.432-0.334,5.078,1.138,7.156
	c1.473,2.078,3.83,3.352,6.375,3.447l30.815,1.141l-7.399,29.595c-1.093,4.374,1.557,8.808,5.928,9.916l22.856,5.797
	c-0.04,0.524-0.08,1.047-0.08,1.582v3.044c0,1.317,0.136,2.602,0.378,3.85h-37.924l-7.093-10.638l9.866-17.76
	c1.409-2.534,1.37-5.625-0.1-8.124c-1.471-2.5-4.154-4.034-7.052-4.034h-25.226c-3.078-53.924-36.387-60.446-37.871-60.708
	c-4.46-0.79-8.697,2.185-9.48,6.637c-0.786,4.45,2.185,8.695,6.636,9.48c0.231,0.041,21.69,4.995,24.314,44.592h-43.168
	c-4.52,0-8.183,3.664-8.183,8.183s3.663,8.183,8.183,8.183h27.581v24.19h-72.08C119.869,486.765,110.079,482.153,103.434,474.112z
	 M240.495,481.053l3.808,5.711h-25.559v-24.19h26.943l-5.537,9.965C238.662,475.219,238.795,478.505,240.495,481.053z
	 M421.436,482.915c0,2.124-1.728,3.854-3.852,3.854h-39.74v-10.751c0,0,37.851,0,37.879,0h1.861c2.124,0,3.852,1.728,3.852,3.854
	L421.436,482.915L421.436,482.915z"/>
<path d="M402.791,137.704c-10.519,4.298-21.666,6.478-33.136,6.478c-11.466,0-22.612-2.179-33.127-6.474
	c-16.862-6.888-36.672-1.653-48.175,12.731c-15.146,18.944-23.212,42.771-22.714,67.093c0.546,26.77,11.35,52.052,30.425,71.187
	c19.074,19.137,44.32,30.023,71.087,30.654c0.846,0.02,1.69,0.029,2.532,0.029c27.34,0,53.06-10.458,72.665-29.607
	c20.216-19.746,31.349-46.181,31.349-74.435c0-23.751-8.213-46.979-23.128-65.407l0,0
	C439.187,135.896,419.54,130.859,402.791,137.704z M457.329,215.361c0,23.81-9.383,46.087-26.42,62.727
	c-17.029,16.634-39.53,25.493-63.376,24.923c-22.531-0.53-43.799-9.709-59.882-25.845c-16.083-16.135-25.194-37.433-25.655-59.968
	c-0.419-20.501,6.377-40.58,19.136-56.539c4.951-6.192,12.403-9.609,19.948-9.609c3.126,0,6.269,0.588,9.255,1.807
	c12.49,5.103,25.719,7.69,39.317,7.69c13.603,0,26.834-2.589,39.327-7.693c10.124-4.137,21.991-1.094,28.864,7.397l0,0
	C450.409,175.775,457.329,195.347,457.329,215.361z"/>
<path d="M420.349,227.304c-4.52,0-8.183,3.664-8.183,8.183c0,9.465-7.701,17.164-17.164,17.164c-8.178,0-15.027-5.753-16.741-13.422
	h3.274c4.52,0,8.183-3.664,8.183-8.183s-3.663-8.183-8.183-8.183h-23.761c-4.52,0-8.183,3.664-8.183,8.183s3.663,8.183,8.183,8.183
	h3.275c-1.714,7.669-8.564,13.422-16.741,13.422c-9.465,0-17.163-7.7-17.163-17.164c0-4.519-3.663-8.183-8.183-8.183
	s-8.183,3.664-8.183,8.183c0,18.489,15.041,33.53,33.529,33.53c10.114,0,19.195-4.499,25.347-11.603
	c6.152,7.104,15.233,11.603,25.346,11.603c18.489,0,33.53-15.041,33.53-33.53C428.532,230.967,424.868,227.304,420.349,227.304z"/>
<path d="M349.99,210.552c4.52,0,8.183-3.664,8.183-8.183v-16.387c0-4.519-3.663-8.183-8.183-8.183s-8.183,3.664-8.183,8.183v16.387
	C341.807,206.888,345.471,210.552,349.99,210.552z"/>
<path d="M389.319,210.552c4.52,0,8.183-3.664,8.183-8.183v-16.387c0-4.519-3.663-8.183-8.183-8.183s-8.183,3.664-8.183,8.183v16.387
	C381.136,206.888,384.799,210.552,389.319,210.552z"/>
<path d="M102.368,126.127c-3.154-1.673-7.101-1.09-9.639,1.424c-5.079,5.028-1.33,13.965,5.783,13.965
	c3.924,0,7.401-2.904,8.063-6.778C107.162,131.298,105.457,127.764,102.368,126.127z"/>
<g>
</g>
<g>
</g>
<g>
</g>
<g>
</g>
<g>
</g>
<g>
</g>
<g>
</g>
<g>
</g>
<g>
</g>
<g>
</g>
<g>
</g>
<g>
</g>
<g>
</g>
<g>
</g>
<g>
</g>
</svg>
